<?xml version="1.0" standalone="no"?>
<!DOCTYPE svg PUBLIC "-//W3C//DTD SVG 20010904//EN"
 "http://www.w3.org/TR/2001/REC-SVG-20010904/DTD/svg10.dtd">
<svg version="1.0" xmlns="http://www.w3.org/2000/svg"
 width="480.000000pt" height="300.000000pt" viewBox="0 0 480.000000 300.000000"
 preserveAspectRatio="xMidYMid meet">
<metadata>
Created by potrace 1.16, written by Peter Selinger 2001-2019
</metadata>
<g transform="translate(0.000000,300.000000) scale(0.100000,-0.100000)"
fill="#000000" stroke="none">
<path d="M0 1555 c0 -1278 2 -1445 15 -1445 8 0 15 5 15 10 0 6 7 10 16 10 9
0 18 9 21 19 3 11 11 22 19 25 19 7 19 66 -1 66 -11 0 -15 12 -15 50 0 38 4
50 15 50 8 0 15 7 15 15 0 8 7 15 15 15 8 0 15 7 15 15 0 8 9 15 20 15 13 0
20 7 20 20 0 16 7 20 35 20 24 0 35 5 35 15 0 8 7 15 15 15 8 0 15 9 15 20 0
13 7 20 20 20 11 0 20 7 20 15 0 8 5 15 10 15 6 0 13 -7 16 -15 9 -22 134 -22
134 0 0 8 9 15 20 15 13 0 20 7 20 20 0 11 7 20 15 20 8 0 15 4 15 9 0 5 9 11
20 14 11 3 20 12 20 21 0 9 5 16 10 16 6 0 10 7 10 15 0 8 9 15 20 15 13 0 20
7 20 20 0 11 7 20 15 20 8 0 15 7 15 15 0 8 9 15 20 15 17 0 20 7 20 50 0 38
4 50 15 50 8 0 15 9 15 20 0 13 7 20 20 20 11 0 20 7 20 15 0 8 7 15 15 15 10
0 15 11 15 35 0 24 5 35 15 35 10 0 15 10 15 30 0 20 5 30 15 30 8 0 15 9 15
20 0 19 7 20 90 20 83 0 90 -1 90 -20 0 -11 7 -20 15 -20 8 0 15 -4 15 -10 0
-5 7 -10 15 -10 8 0 15 -9 15 -20 0 -13 7 -20 20 -20 11 0 20 -7 20 -15 0 -8
7 -15 15 -15 8 0 15 -9 15 -20 0 -16 7 -20 35 -20 28 0 35 4 35 20 0 13 7 20
20 20 16 0 20 7 20 35 0 24 5 35 15 35 10 0 15 10 15 30 0 20 5 30 15 30 8 0
15 7 15 15 0 11 12 15 50 15 43 0 50 3 50 20 0 13 7 20 20 20 11 0 20 7 20 15
0 8 7 15 15 15 8 0 15 9 15 20 0 13 7 20 20 20 11 0 20 7 20 15 0 8 5 15 10
15 6 0 10 7 10 15 0 8 9 15 20 15 11 0 20 7 20 15 0 8 7 15 15 15 8 0 15 9 15
20 0 13 7 20 20 20 11 0 20 7 20 15 0 8 7 15 15 15 8 0 15 9 15 20 0 13 7 20
20 20 11 0 20 7 20 15 0 8 9 15 20 15 12 0 20 7 20 16 0 20 24 44 44 44 9 0
16 8 16 20 0 11 7 20 15 20 8 0 15 7 15 15 0 8 9 15 20 15 13 0 20 7 20 20 0
11 7 20 15 20 8 0 15 7 15 15 0 10 -11 15 -35 15 -28 0 -35 4 -35 20 0 11 -7
20 -15 20 -8 0 -15 7 -15 15 0 8 -9 15 -20 15 -16 0 -20 7 -20 30 0 17 -4 30
-10 30 -5 0 -10 9 -10 20 0 18 -7 20 -55 20 -48 0 -55 2 -55 20 0 16 -7 20
-35 20 -24 0 -35 5 -35 15 0 10 -10 15 -29 15 -20 0 -30 6 -34 20 -4 17 -14
20 -71 20 -52 0 -66 3 -66 15 0 12 -14 15 -65 15 -51 0 -65 3 -65 15 0 13 -22
15 -135 15 -113 0 -135 -2 -135 -15 0 -11 -11 -15 -40 -15 -29 0 -40 4 -40 15
0 8 -7 15 -15 15 -8 0 -15 7 -15 15 0 8 -7 15 -15 15 -9 0 -19 8 -22 17 -8 21
-40 53 -53 53 -5 0 -10 23 -10 50 0 38 4 50 15 50 10 0 15 11 15 35 0 24 5 35
15 35 8 0 15 7 15 15 0 8 9 15 20 15 13 0 20 7 20 20 0 16 7 20 35 20 28 0 35
-4 35 -20 0 -13 7 -20 20 -20 13 0 20 7 20 20 0 16 7 20 30 20 20 0 30 -5 30
-15 0 -9 7 -18 15 -21 8 -4 15 -12 15 -20 0 -9 12 -14 35 -14 28 0 35 -4 35
-20 0 -16 7 -20 35 -20 24 0 35 -5 35 -15 0 -11 12 -15 50 -15 38 0 50 -4 50
-15 0 -10 11 -15 35 -15 24 0 35 -5 35 -15 0 -12 14 -15 66 -15 57 0 67 -3 71
-20 5 -19 14 -20 119 -20 93 0 116 -3 120 -15 4 -10 20 -15 50 -15 32 0 44 4
44 15 0 12 14 15 70 15 63 0 70 2 70 20 0 18 7 20 65 20 58 0 65 -2 65 -20 0
-18 7 -20 55 -20 67 0 72 15 20 64 -23 22 -35 42 -35 60 0 18 12 38 35 60 19
19 35 43 35 55 0 18 6 21 40 21 l40 0 0 60 c0 33 4 60 10 60 6 0 10 27 10 60
0 33 -4 60 -10 60 -5 0 -10 11 -10 25 0 16 -6 25 -15 25 -8 0 -15 7 -15 15 0
9 9 15 25 15 16 0 25 -6 25 -15 0 -24 10 -18 60 35 l47 50 82 0 c47 0 81 -4
81 -10 0 -5 7 -10 15 -10 8 0 15 -7 15 -15 0 -12 15 -15 75 -15 43 0 75 -4 75
-10 0 -5 9 -10 20 -10 11 0 20 5 20 10 0 6 23 10 50 10 28 0 50 -4 50 -10 0
-5 7 -10 15 -10 8 0 15 -5 15 -11 0 -14 25 -39 39 -39 6 0 11 -7 11 -15 0 -8
5 -15 10 -15 6 0 10 -9 10 -20 0 -16 -7 -20 -35 -20 -19 0 -35 -4 -35 -10 0
-13 77 -90 90 -90 6 0 10 -11 10 -25 0 -14 4 -25 10 -25 5 0 10 -28 12 -62 3
-61 4 -63 36 -73 21 -6 32 -15 32 -27 0 -10 7 -18 15 -18 8 0 15 -7 15 -15 0
-8 7 -15 15 -15 10 0 15 -10 15 -30 0 -20 5 -30 15 -30 10 0 15 -11 15 -35 0
-28 4 -35 20 -35 17 0 20 -7 20 -50 0 -38 4 -50 15 -50 8 0 15 -7 15 -15 0 -8
9 -15 20 -15 18 0 20 -7 20 -55 0 -48 2 -55 20 -55 13 0 20 -7 20 -20 0 -13 7
-20 20 -20 17 0 20 -7 20 -45 0 -38 -3 -45 -20 -45 -16 0 -20 -7 -20 -35 0
-28 -4 -35 -20 -35 -13 0 -20 -7 -20 -20 0 -18 -7 -20 -56 -20 -40 0 -55 -4
-52 -12 3 -7 19 -14 36 -16 24 -2 32 -8 32 -23 0 -16 7 -19 55 -19 30 0 55 -4
55 -10 0 -5 14 -10 30 -10 23 0 30 -4 30 -20 0 -16 7 -20 35 -20 24 0 35 -5
35 -15 0 -8 9 -15 20 -15 16 0 20 -7 20 -35 0 -24 5 -35 15 -35 11 0 15 -12
15 -49 0 -40 3 -50 20 -54 16 -4 20 -14 20 -51 l0 -46 100 0 c93 0 100 -1 100
-20 0 -19 7 -20 115 -20 108 0 115 1 115 20 0 18 7 20 70 20 63 0 70 -2 70
-20 0 -11 7 -20 15 -20 8 0 15 -7 15 -15 0 -8 9 -15 20 -15 14 0 20 -7 20 -21
0 -33 25 -16 28 19 2 24 8 32 23 32 15 0 19 7 19 35 0 24 5 35 15 35 8 0 15 9
15 20 0 11 7 20 15 20 10 0 15 10 15 30 0 20 5 30 15 30 10 0 15 11 15 35 0
28 4 35 20 35 16 0 20 7 20 35 0 24 5 35 15 35 10 0 15 11 15 35 0 24 5 35 15
35 19 0 55 31 55 47 0 9 16 13 50 13 38 0 50 -4 50 -15 0 -9 7 -18 15 -21 20
-8 20 -64 0 -64 -8 0 -15 -7 -15 -15 0 -10 -10 -15 -30 -15 -27 0 -30 -3 -30
-31 0 -22 -5 -32 -20 -36 -14 -4 -20 -14 -20 -34 0 -17 -6 -32 -15 -35 -21 -9
-21 -104 0 -104 11 0 15 -12 15 -50 0 -38 -4 -50 -15 -50 -10 0 -15 -10 -15
-30 0 -23 -4 -30 -20 -30 -16 0 -20 -7 -20 -35 0 -28 4 -35 20 -35 13 0 20 -7
20 -20 0 -16 7 -20 35 -20 24 0 35 -5 35 -15 0 -8 5 -15 10 -15 16 0 12 -28
-7 -50 -21 -24 -73 -28 -73 -5 0 10 -11 15 -35 15 -35 0 -47 -16 -20 -26 8 -4
15 -12 15 -20 0 -9 11 -14 31 -14 22 0 32 -5 36 -20 3 -11 11 -20 17 -20 13 0
39 -28 49 -53 3 -9 13 -17 22 -17 8 0 15 -7 15 -15 0 -8 7 -15 15 -15 10 0 15
-10 15 -30 0 -23 4 -30 20 -30 20 0 20 7 20 1210 l0 1210 -2400 0 -2400 0 0
-1445z"/>
<path d="M4760 375 c0 -26 -24 -57 -53 -68 -9 -3 -17 -13 -17 -22 0 -8 -4 -15
-10 -15 -5 0 -10 -7 -10 -15 0 -8 -9 -15 -20 -15 -13 0 -20 -7 -20 -20 0 -11
-7 -20 -15 -20 -8 0 -15 -7 -15 -15 0 -10 -11 -15 -35 -15 -28 0 -35 -4 -35
-20 0 -16 -7 -20 -35 -20 -19 0 -35 -4 -35 -10 0 -5 -13 -10 -30 -10 -23 0
-30 -4 -30 -20 0 -18 -7 -20 -55 -20 -42 0 -55 -3 -55 -15 0 -12 -14 -15 -65
-15 -58 0 -65 -2 -65 -20 0 -20 7 -20 320 -20 l320 0 0 200 c0 193 -1 200 -20
200 -15 0 -20 -7 -20 -25z"/>
</g>
</svg>
